<svg width="30" height="31" viewBox="0 0 30 31" fill="none" xmlns="http://www.w3.org/2000/svg">
<g clip-path="url(#clip0_33_656)">
<path d="M15.5 30.5C16.8807 30.5 18 29.3807 18 28C18 26.6193 16.8807 25.5 15.5 25.5C14.1193 25.5 13 26.6193 13 28C13 29.3807 14.1193 30.5 15.5 30.5Z" fill="#333333"/>
<path d="M15.5 18C16.8807 18 18 16.8807 18 15.5C18 14.1193 16.8807 13 15.5 13C14.1193 13 13 14.1193 13 15.5C13 16.8807 14.1193 18 15.5 18Z" fill="#333333"/>
<path d="M15.5 5.5C16.8807 5.5 18 4.38071 18 3C18 1.61929 16.8807 0.5 15.5 0.5C14.1193 0.5 13 1.61929 13 3C13 4.38071 14.1193 5.5 15.5 5.5Z" fill="#333333"/>
</g>
<defs>
<clipPath id="clip0_33_656">
<rect width="30" height="30" fill="white" transform="translate(0 0.5)"/>
</clipPath>
</defs>
</svg>
