<svg xmlns="http://www.w3.org/2000/svg" viewBox="0 0 2296.46 274.56"><defs><style>.cls-1{fill:#2d2d2d;}</style></defs><g id="Layer_2" data-name="Layer 2"><g id="Layer_1-2" data-name="Layer 1"><path class="cls-1" d="M341.73,228c-24.9-22.3-32.16-52.64-32.16-76.51,0-19.19,5.18-48.5,29.56-71.06,18.94-17.12,44.61-27.75,82.74-27.75,34.75,0,56.28,7.78,66.91,10.11-1.82,6.49-4.15,21.27-4.41,32.94C473,84.09,449.88,74,419,74c-25.41,0-40.71,8.3-50.83,17.37-16.34,14.79-21.78,35-21.78,56.8,0,41.24,24.89,83.77,85.06,83.77,21.27,0,42.54-3.89,56.54-14a228.27,228.27,0,0,0-5.7,29.57c-10.12,4.15-32.68,8.55-54.73,8.55C394.89,256,365.33,248.52,341.73,228Z"/><path class="cls-1" d="M539.86,155.93c0-51.87,34.75-103.22,104.78-103.22,62.5,0,101.14,43.83,101.14,96.74C745.78,209.1,707.14,256,641.26,256,570.46,256,539.86,202.1,539.86,155.93ZM709,157.49c0-46.17-26.72-84.55-70.81-84.55-36,0-61.72,27.75-61.46,75.21,0,49.28,26.45,87.41,71.32,87.41C673.16,235.56,709,218.7,709,157.49Z"/><path class="cls-1" d="M864.55,57.12h79.37c5.44,0,6,.26,6,1,0,1.55-1.81,4.66-2.85,6.48-35.79,57.06-69.77,111.52-106.34,166.51h52.39c28.53,0,49.8-1.82,59.13-7-2.33,6.49-5.7,21-7.78,27.76-1.29.77-8.55.77-15.82.77-43.31,0-80.4-1-133.3-1-3.12,0-3.64-.52-3.64-1,0-1,1.56-3.37,5.45-9.34,34.75-52.39,70.8-108.93,105.56-163.91H861.44c-40.46,0-56.8,5.45-62.76,8.56,2.33-7.26,4.41-21.79,5.18-31.12C810.35,56.08,824.61,57.12,864.55,57.12Z"/><path class="cls-1" d="M1066.58,179.28a27,27,0,0,0-3.63-14c-10.9-20.49-34.24-59.13-40.2-67.69-8.82-13.23-20-30.86-30.09-41,4.67.26,9.86.52,18.15.52,8,0,23.35-.26,26.2-1,2.07,5.71,8.56,18.68,14.78,30.09,4.15,7.26,30.61,53.68,35.27,61.21,12.19-21.53,31.91-57.84,37.87-69.25,2.59-5.19,7.78-15.82,9.86-21.53,2.85.26,8,.52,11.67.52,11.67,0,20.23-.52,22.56-.78-6.48,6.75-16.86,23.08-25.93,37.35-7.79,12.45-34.76,57.58-41.24,73.92a29.72,29.72,0,0,0-2.6,12.44c0,31.13,1,60.17,2.34,72.1-2.59-.25-8.3-.51-16.08-.51-6,0-18.16.26-21.53,1C1065.28,242.3,1066.58,219.73,1066.58,179.28Z"/><path class="cls-1" d="M1320.2,131.55c0-42.53-1.3-67.17-3.37-75,4.41.52,13.23.52,20.49.52H1398c7.26,0,18.93,0,23.86-1.56a163.14,163.14,0,0,0-2.6,29.05c-3.89-2.33-9.85-3.89-24.11-5.19-8.56-.51-24.64-1-41.5-1-.26,0-1,.26-1,.77v57.58a1.19,1.19,0,0,0,1,1.3c4.93,0,31.38,0,39.94-.26,15.3-.52,20.49-1.3,23.6-2.34a168.49,168.49,0,0,0-2.33,29.31c-4.41-2.33-9.08-3.89-20-4.67-8.56-.51-35.28-1-41.24-1a1.12,1.12,0,0,0-1,1v14.27c0,45.9.52,52.91,1.82,53.94.77.78,3.63,1.56,6,1.82a217.08,217.08,0,0,0,24.9,1c22.3,0,35.53-1.82,44.35-6a221.28,221.28,0,0,0-6.22,27.23c-1,.78-4.41,1-14.53,1-35,0-55.24-1.81-69.25-1.81-10.37,0-18.41.26-22,.77.78-9.59,2.59-37.34,2.59-75.21Z"/><path class="cls-1" d="M1533.9,194.58a1.2,1.2,0,0,0-1.3.78c-7.26,19.71-16.08,44.86-19.19,56.79-3.37-.25-7-.51-14.79-.51a145.12,145.12,0,0,0-19.19,1c7-13.74,17.64-36.83,30.61-66.65l51.87-120.86c4.41-9.6,5.7-12.45,7.52-12.45,1.55,0,3.37,2.33,7.78,12.45,3.37,7.52,29.56,65.36,52.13,117.23,12.19,27.49,26.71,58.87,34.23,69.76-6.74-.25-13.48-.51-16.85-.51-9.34,0-20,.51-24.13,1-4.4-11.93-16.07-40.46-23.34-57.31-.26-.52-.26-.78-1-.78Zm56.28-21.27c.77,0,1-.26.77-1L1565,108l-24.64,64.32c-.26.78-.26,1,.52,1Z"/><path class="cls-1" d="M1724,131.55c0-37.08-.78-65.09-3.89-75,6,.26,10.63.52,16.07.52,4.93,0,28.27-1,38.91-1,21,0,37.6,2.85,48.5,9.34a49.83,49.83,0,0,1,24.64,43.31c0,21.79-11.41,40.2-31.9,53.69,19.59,29.2,38.16,76.22,52.17,91h0c-18.68-2.08-23.38-1.31-38.11,0h0c-14.78-14.52-30.92-64-41.3-78a3.37,3.37,0,0,0-3.11-1.82c-5.71,0-20,0-29.31-.26-.77,0-1,.52-1,1.56v7c0,31.12,1.29,58.1,3.11,70.28-3.37-.25-9.6-.51-15.82-.51-6.75,0-18.42.51-22.05,1,1.56-10.89,3.12-42.27,3.12-75.47Zm31.64,17.64c0,2.08.26,2.33,1,2.85,4.93,1.3,15.82,2.34,28.27,2.34,7,0,11.42-.78,14.27-2.86,8.56-6.48,16.86-17.63,16.86-34.75,0-27.49-19.2-41.24-43.06-41.24-7,0-13.48.26-16.34,1-1,.26-1,.78-1,1.82Z"/><path class="cls-1" d="M1899.66,54.53c7,1.81,18.42,2.59,41.76,2.59h86.36c16.86,0,36-.78,41.5-2.33-2.07,9.07-3.11,20.74-3.37,30.86-4.93-3.37-13.23-5.19-28.79-6.23-9.34-.77-19.71-1-39.94-1V177.2c0,31.12,1.3,63.8,2.59,75-3.37-.25-8.81-.51-14.78-.51a183.93,183.93,0,0,0-22.82,1c1.29-10.37,2.33-42.27,2.33-75.47V78.39c-11.15,0-17.89-.26-34.49.52-18.68,1-27.49,2.07-35.53,4.92C1896.29,77.61,1898.88,62.05,1899.66,54.53Z"/><path class="cls-1" d="M2128.92,131.55c0-37.08-1.3-64.32-3.37-75,3.11.26,10.11.52,16.08.52a196.44,196.44,0,0,0,21.78-1c-.77,9.34-2.07,33.2-2.07,71.58v4.16c0,.77.26,1,1,1h98c.78,0,1-.26,1-1v-4.16c0-37.08-1.3-61.2-2.59-71.06,3.63.26,9.33.52,16.34.52a157.92,157.92,0,0,0,21.26-1c-1,9.86-2.33,38.65-2.33,75.47V177.2c0,31.12,1,63,2.33,75-3.11-.25-10.63-.51-16.33-.51-7.53,0-19.46.77-21.27,1,1.55-11.15,2.59-42.27,2.59-75.47V158c0-.78-.26-1-1-1h-98.29c-.52,0-.78.52-.78,1V177.2c0,31.12,1.3,63,2.59,75-2.85-.25-8.55-.51-14.78-.51a212.47,212.47,0,0,0-22.82,1c1.29-11.41,2.59-42.27,2.59-75.47Z"/><path class="cls-1" d="M150.2,271.24c7.87-92.6-16-155.67-78.4-212.14a2.24,2.24,0,0,0-3.23.23h0A2,2,0,0,0,68.66,62c44.21,49.86,86.37,123.69,63.13,209.93a2.16,2.16,0,0,0,2.35,2.66l14.13-1.41A2.12,2.12,0,0,0,150.2,271.24Z"/><path class="cls-1" d="M149.91,225.76c39.38-29.11,54.62-87.48,55.89-101.11a.9.9,0,0,0-1.39-.84c-10.78,7-35.53,28.85-57.37,81.75a.9.9,0,0,0-.06.49Z"/><path class="cls-1" d="M131,196.07c-17.27,18.52-65.15,23.51-91.8,22.26a.92.92,0,0,1-.68-1.46c12.13-16.29,76.27-23.94,91.92-22.34A.91.91,0,0,1,131,196.07Z"/><path class="cls-1" d="M134.15,178.85c-43.4,3.32-106.89-38.77-123.21-55.66a.91.91,0,0,1,.68-1.6c34.6,3.3,88.62,23.64,116.7,48.35,26.87,23.63,10.24,12.32,7.84,10.46A14.23,14.23,0,0,0,134.15,178.85Z"/><path class="cls-1" d="M104.45,108.18C70.86,87,13,79.87.68,83.25a.91.91,0,0,0-.4,1.54c10.2,9.76,78.8,42.92,111.69,36.32a.94.94,0,0,0,.73-1c-.56-10.49-6.78-11.73-7.91-11.86A1.06,1.06,0,0,1,104.45,108.18Z"/><path class="cls-1" d="M119.5,123.34S145,32.56,199,.13a.92.92,0,0,1,1.37.9C199,12.32,189.23,73.48,133.93,104.77a.85.85,0,0,0-.41.52l-7.78,26"/><path class="cls-1" d="M196.3,98.2c-4.85,4.37-27.06,21.55-65.18,9.91a.91.91,0,0,1-.25-1.62c6.76-4.63,35.43-22.21,65.17-9.8A.91.91,0,0,1,196.3,98.2Z"/></g></g></svg>