<svg viewBox="0 0 899.896 394.566" id="logo"> <path d="M130.321,117.868c-67.16,0-130.956,63.139-130.316,134.889c0.584,64.314,37.283,141.244,132.571,141.807
	c78.64,0.471,112.548-62.364,120.007-91.08c0,0-39.126-1.141-44.861,0c-2.297,6.91-24.064,59.599-75.146,59.021
	c-63.715-0.711-88.948-76.451-88.948-93.662h215.851C261.769,169.53,197.477,117.868,130.321,117.868 M45.932,235.469
	c16.536-98.603,139.115-123.771,168.773,0C208.946,236.032,53.398,236.032,45.932,235.469"></path> <rect x="277.819" y="0.028" width="42.461" height="394.352"></rect> <rect x="346.784" width="42.476" height="394.359"></rect> <path d="M535.112,117.241c-69.943,0-126.64,61.07-126.64,136.389c0,82.502,52.095,140.68,126.64,140.68
	c75.691,0,126.643-59.035,126.643-140.68C661.754,178.312,605.053,117.241,535.112,117.241 M535.112,362.132
	c-50.516,0-85.233-45.688-85.233-108.502c0-56.488,38.163-102.289,85.233-102.289c47.088,0,85.232,45.801,85.232,102.289
	C620.344,315.867,585.643,362.132,535.112,362.132"></path> <path d="M847.362,201.103c3.427,0.38,34.451,0,37.025,0c1.999-8.008-4.095-82.326-105.223-82.538
	c-56.645-0.134-102.297,23.987-101.424,74.791c1.062,62.899,75.762,69.753,93.866,73.193c18.069,3.44,84.382,15.509,84.382,44.787
	c0,35.759-29.342,48.115-64.596,49.072c-30.988,0.837-73.179-14.644-76.641-59.416h-43.922
	c2.604,41.318,31.883,93.001,114.54,93.325c82.65,0.316,114.525-32.186,114.525-82.981c0-57.755-70.667-74.706-90.419-78.26
	c-16.493-2.948-84.381-8.732-84.381-41.444c0-21.652,10.998-39.201,54.068-40.46C837.708,149.448,846.51,186.46,847.362,201.103"></path> </svg>