<?xml version="1.0" encoding="utf-8"?>
<!-- Generator: Adobe Illustrator 19.2.1, SVG Export Plug-In . SVG Version: 6.00 Build 0)  -->
<svg version="1.1" id="layer" xmlns="http://www.w3.org/2000/svg" xmlns:xlink="http://www.w3.org/1999/xlink" x="0px" y="0px"
	 viewBox="0 0 652 652" style="enable-background:new 0 0 652 652;" xml:space="preserve">
<style type="text/css">
	.st0{fill:#C1A38B;}
</style>
<g id="Layer_2">
	<g id="Layer_1-2">
		<path class="st0" d="M219.5,383.3h-16.4v-16c-8.2,11.6-21.4,18.5-35.6,18.6c-28.4,0-51.4-23.2-51.4-54c0-31,23.2-54.2,51.8-54.2
			c29.2,0,51.6,23.8,51.6,54.2L219.5,383.3z M167.9,293.4c-19.2,0-34.8,17-34.8,38.6c0,21.6,15.6,38.2,34.8,38.2
			c19,0,34.8-17,34.8-38.2C202.7,310.5,186.7,293.4,167.9,293.4z"/>
		<path class="st0" d="M341,383.3h-16.4v-16c-8.2,11.6-21.4,18.5-35.6,18.6c-28.4,0-51.4-23.2-51.4-54c0-31,23.2-54.2,51.8-54.2
			c29.2,0,51.6,23.8,51.6,54.2L341,383.3z M289.4,293.4c-19.2,0-34.8,17-34.8,38.6c0,21.6,15.6,38.2,34.8,38.2
			c19,0,34.8-17,34.8-38.2C324.2,310.5,308.2,293.4,289.4,293.4z"/>
		<path class="st0" d="M403.4,383.3c-24,2.8-40.6-11.4-40.6-37.6v-87.4h16.8v22H403v16.2h-23.4v49.2c0,18.2,11,22.8,23.8,22V383.3z"
			/>
		<path class="st0" d="M417.5,280.4h18l28.4,80.4h0.2l28.4-80.4h18L473,383.3h-18.2L417.5,280.4z"/>
		<path class="st0" d="M620,383.3h-16.4v-16c-8.2,11.6-21.4,18.5-35.6,18.6c-28.4,0-51.4-23.2-51.4-54c0-31,23.2-54.2,51.8-54.2
			c29.2,0,51.6,23.8,51.6,54.2V383.3z M568.4,293.4c-19.2,0-34.8,17-34.8,38.6c0,21.6,15.6,38.2,34.8,38.2c19,0,34.8-17,34.8-38.2
			C603.2,310.5,587.2,293.4,568.4,293.4z"/>
		<path class="st0" d="M20,369.1c11.9,10.7,27.4,16.5,43.3,16.5c22.6,0,37.2-12.2,37.2-31v-0.3c0-16-9.4-24.6-33.4-30.4
			c-20-4.7-25.5-8.4-25.5-17v-0.3c0-7.6,7.2-12.9,17.6-12.9c10.4,0.3,20.4,4.1,28.5,10.7l9.4-13.3c-10.6-8.6-24-13.2-37.6-12.9
			c-20.9,0-35.5,12.4-35.5,30.1v0.3c0,19,12.2,25.6,34.7,31c18.5,4.3,24.1,8.1,24.1,16.5v0.3c0,8.2-7.7,13.7-19.1,13.7
			c-12,0-22.3-4.2-33.2-13.5L20,369.1z"/>
	</g>
</g>
</svg>
