<svg width="40" height="41" viewBox="0 0 40 41" fill="none" xmlns="http://www.w3.org/2000/svg">
<g clip-path="url(#clip0_42_125)">
<path d="M34.4351 32.3637C18.2432 40.0863 8.19426 33.625 1.76165 29.7006C1.3636 29.4533 0.68706 29.7584 1.27405 30.4341C3.41708 33.0382 10.4402 39.3147 19.6075 39.3147C28.781 39.3147 34.2384 34.2984 34.9211 33.4234C35.5992 32.5557 35.1202 32.0771 34.4349 32.3637H34.4351ZM38.9825 29.8469C38.5477 29.2795 36.3385 29.1737 34.9482 29.3449C33.5557 29.5111 31.4656 30.3639 31.6474 30.876C31.7406 31.0678 31.9309 30.9818 32.8875 30.8956C33.8467 30.7997 36.5338 30.4598 37.0937 31.1934C37.6562 31.932 36.2367 35.4504 35.9774 36.0179C35.7269 36.5853 36.0731 36.7316 36.5436 36.3537C37.0077 35.9759 37.8478 34.9975 38.4116 33.613C38.9715 32.2209 39.313 30.279 38.9825 29.8469Z" fill="#BAA48E"/>
<path fill-rule="evenodd" clip-rule="evenodd" d="M23.5478 16.6057C23.5478 18.632 23.5989 20.3219 22.577 22.1213C21.7521 23.5845 20.4455 24.4843 18.9856 24.4843C16.9928 24.4843 15.8322 22.9626 15.8322 20.7169C15.8322 16.2838 19.7957 15.4792 23.5478 15.4792V16.6057ZM28.7815 29.2832C28.4384 29.5903 27.9421 29.6124 27.5552 29.4074C25.8326 27.9737 25.5259 27.3081 24.577 25.94C21.7302 28.8516 19.7155 29.722 16.022 29.722C11.6569 29.722 8.25525 27.0226 8.25525 21.6167C8.25525 17.3958 10.5401 14.5208 13.7882 13.1164C16.6059 11.8727 20.5404 11.6533 23.5478 11.3095V10.6365C23.5478 9.40013 23.6426 7.93712 22.9201 6.86915C22.2849 5.91082 21.0732 5.51577 20.0074 5.51577C18.0293 5.51577 16.2628 6.53254 15.8322 8.63933C15.7444 9.10762 15.4015 9.56851 14.9344 9.59041L9.8976 9.04918C9.47432 8.95389 9.00718 8.61018 9.12397 7.95901C10.2846 1.84357 15.7955 0 20.73 0C23.2557 0 26.555 0.673068 28.5478 2.58973C31.0735 4.95249 30.8326 8.10534 30.8326 11.5362V19.6416C30.8326 22.0776 31.8399 23.1455 32.7888 24.4624C33.1245 24.9305 33.1976 25.4939 32.7742 25.8449C31.7157 26.73 29.8324 28.376 28.796 29.2978L28.7814 29.2832" fill="#333333"/>
<path d="M34.4351 32.3637C18.2432 40.0863 8.19426 33.625 1.76165 29.7006C1.3636 29.4533 0.68706 29.7584 1.27405 30.4341C3.41708 33.0382 10.4402 39.3147 19.6075 39.3147C28.781 39.3147 34.2384 34.2984 34.9211 33.4234C35.5992 32.5557 35.1202 32.0771 34.4349 32.3637H34.4351ZM38.9825 29.8469C38.5477 29.2795 36.3385 29.1737 34.9482 29.3449C33.5557 29.5111 31.4656 30.3639 31.6474 30.876C31.7406 31.0678 31.9309 30.9818 32.8875 30.8956C33.8467 30.7997 36.5338 30.4598 37.0937 31.1934C37.6562 31.932 36.2367 35.4504 35.9774 36.0179C35.7269 36.5853 36.0731 36.7316 36.5436 36.3537C37.0077 35.9759 37.8478 34.9975 38.4116 33.613C38.9715 32.2209 39.313 30.279 38.9825 29.8469Z" fill="#BAA48E"/>
<path fill-rule="evenodd" clip-rule="evenodd" d="M23.5478 16.6057C23.5478 18.632 23.5989 20.3219 22.577 22.1213C21.7521 23.5845 20.4455 24.4843 18.9856 24.4843C16.9928 24.4843 15.8322 22.9626 15.8322 20.7169C15.8322 16.2838 19.7957 15.4792 23.5478 15.4792V16.6057ZM28.7815 29.2832C28.4384 29.5903 27.9421 29.6124 27.5552 29.4074C25.8326 27.9737 25.5259 27.3081 24.577 25.94C21.7302 28.8516 19.7155 29.722 16.022 29.722C11.6569 29.722 8.25525 27.0226 8.25525 21.6167C8.25525 17.3958 10.5401 14.5208 13.7882 13.1164C16.6059 11.8727 20.5404 11.6533 23.5478 11.3095V10.6365C23.5478 9.40013 23.6426 7.93712 22.9201 6.86915C22.2849 5.91082 21.0732 5.51577 20.0074 5.51577C18.0293 5.51577 16.2628 6.53254 15.8322 8.63933C15.7444 9.10762 15.4015 9.56851 14.9344 9.59041L9.8976 9.04918C9.47432 8.95389 9.00718 8.61018 9.12397 7.95901C10.2846 1.84357 15.7955 0 20.73 0C23.2557 0 26.555 0.673068 28.5478 2.58973C31.0735 4.95249 30.8326 8.10534 30.8326 11.5362V19.6416C30.8326 22.0776 31.8399 23.1455 32.7888 24.4624C33.1245 24.9305 33.1976 25.4939 32.7742 25.8449C31.7157 26.73 29.8324 28.376 28.796 29.2978L28.7814 29.2832" fill="#333333"/>
</g>
<defs>
<clipPath id="clip0_42_125">
<rect width="40" height="40.0863" fill="white"/>
</clipPath>
</defs>
</svg>
