<svg width="210" height="26" viewBox="0 0 210 26" fill="none" xmlns="http://www.w3.org/2000/svg">
<g clip-path="url(#clip0_42_180)">
<path d="M31.2495 20.9032C28.9725 18.8596 28.3087 16.0791 28.3087 13.8916C28.3087 12.133 28.7823 9.44696 31.0118 7.3795C32.7437 5.81059 35.0911 4.83643 38.5779 4.83643C41.7557 4.83643 43.7245 5.5494 44.6965 5.76293C44.5301 6.35769 44.317 7.71217 44.2933 8.78163C43.2535 7.71492 41.1393 6.79024 38.3155 6.79024C35.9919 6.79024 34.5928 7.55088 33.6673 8.38207C32.1731 9.73747 31.6757 11.5896 31.6757 13.5874C31.6757 17.3667 33.9517 21.2643 39.454 21.2643C41.399 21.2643 43.3441 20.9078 44.6243 19.9813C44.3912 20.8721 44.2171 21.7773 44.1031 22.6911C43.1776 23.0714 41.1146 23.4747 39.0983 23.4747C36.1107 23.4692 33.4076 22.7837 31.2495 20.9032Z" fill="#333333"/>
<path d="M49.3676 14.2984C49.3676 9.54495 52.5453 4.83911 58.9492 4.83911C64.6645 4.83911 68.1979 8.8558 68.1979 13.7046C68.1979 19.1711 64.6645 23.4691 58.6401 23.4691C52.1658 23.4691 49.3676 18.5296 49.3676 14.2984ZM64.8346 14.4414C64.8346 10.2103 62.3912 6.69304 58.3594 6.69304C55.0673 6.69304 52.7154 9.23612 52.7391 13.5855C52.7391 18.1016 55.1579 21.5959 59.261 21.5959C61.5572 21.5959 64.8346 20.0508 64.8346 14.4414Z" fill="#333333"/>
<path d="M79.0588 5.24331H86.3168C86.8143 5.24331 86.8655 5.26714 86.8655 5.33495C86.8655 5.477 86.7 5.762 86.6049 5.92879C83.332 11.1579 80.2247 16.1488 76.8806 21.1882H81.6714C84.2803 21.1882 86.2254 21.0214 87.0785 20.5467C86.8655 21.1414 86.5573 22.4712 86.3671 23.0907C86.2491 23.1612 85.5852 23.1612 84.9204 23.1612C80.96 23.1612 77.5683 23.0696 72.7308 23.0696C72.4455 23.0696 72.3979 23.0219 72.3979 22.978C72.3979 22.8863 72.5406 22.6691 72.8963 22.122C76.074 17.3209 79.3706 12.1394 82.5493 7.1009H78.7744C75.0745 7.1009 73.5803 7.60035 73.0353 7.88536C73.2484 7.22004 73.4386 5.88847 73.509 5.03345C74.1025 5.148 75.4065 5.24331 79.0588 5.24331Z" fill="#333333"/>
<path d="M97.5335 16.4384C97.5414 15.9884 97.4266 15.5448 97.2016 15.1554C96.2048 13.2776 94.0705 9.73655 93.5255 8.95209C92.719 7.73966 91.6966 6.124 90.7739 5.19475C91.201 5.21857 91.6756 5.2424 92.4337 5.2424C93.1652 5.2424 94.5689 5.21857 94.8295 5.15076C95.0188 5.67404 95.6123 6.86264 96.1811 7.90828C96.5606 8.5736 98.9802 12.8276 99.4064 13.5177C100.521 11.5447 102.324 8.21711 102.869 7.17147C103.106 6.69585 103.581 5.72169 103.771 5.19841C104.032 5.22224 104.503 5.24607 104.838 5.24607C105.905 5.24607 106.688 5.19841 106.901 5.17458C106.309 5.79317 105.359 7.28969 104.53 8.59743C103.818 9.73838 101.351 13.8742 100.759 15.3716C100.598 15.73 100.517 16.1189 100.521 16.5117C100.521 19.3645 100.613 22.0258 100.735 23.1191C100.498 23.0962 99.976 23.0724 99.2646 23.0724C98.7159 23.0724 97.604 23.0962 97.2958 23.164C97.4147 22.2137 97.5335 20.1453 97.5335 16.4384Z" fill="#333333"/>
<path d="M120.726 12.0642C120.726 8.16664 120.607 5.90857 120.418 5.19101C120.821 5.23867 121.627 5.23867 122.291 5.23867H127.84C128.504 5.23867 129.571 5.23867 130.022 5.0957C129.864 5.97421 129.784 6.86518 129.784 7.75792C129.429 7.54439 128.884 7.40143 127.58 7.28229C126.797 7.23556 125.326 7.19065 123.785 7.19065C123.761 7.19065 123.693 7.21448 123.693 7.26121V12.538C123.69 12.5658 123.698 12.5937 123.715 12.6159C123.732 12.638 123.757 12.6528 123.785 12.6571C124.235 12.6571 126.654 12.6571 127.437 12.6333C128.836 12.5856 129.311 12.5142 129.595 12.4189C129.446 13.3063 129.375 14.205 129.382 15.1049C128.979 14.8914 128.552 14.7484 127.553 14.6769C126.77 14.6302 124.327 14.5853 123.782 14.5853C123.758 14.5877 123.737 14.5981 123.72 14.6148C123.703 14.6315 123.693 14.6534 123.69 14.6769V15.9847C123.69 20.1911 123.738 20.8335 123.857 20.9279C123.927 20.9993 124.189 21.0708 124.406 21.0946C125.162 21.1689 125.922 21.1995 126.683 21.1863C128.722 21.1863 129.932 21.0195 130.738 20.6364C130.496 21.4554 130.306 22.2889 130.169 23.1319C130.078 23.2033 129.766 23.2235 128.841 23.2235C125.64 23.2235 123.789 23.0576 122.508 23.0576C121.56 23.0576 120.825 23.0815 120.496 23.1282C120.568 22.2493 120.733 19.7063 120.733 16.2358L120.726 12.0642Z" fill="#333333"/>
<path d="M140.268 17.8405C140.243 17.8369 140.217 17.842 140.195 17.855C140.174 17.8681 140.157 17.8882 140.149 17.912C139.485 19.7182 138.678 22.0231 138.394 23.1163C138.086 23.0934 137.754 23.0696 137.041 23.0696C136.455 23.0613 135.869 23.0919 135.287 23.1613C135.927 21.9021 136.9 19.7861 138.086 17.0533L142.829 5.97737C143.232 5.09761 143.35 4.83643 143.517 4.83643C143.658 4.83643 143.825 5.04995 144.228 5.97737C144.536 6.66653 146.931 11.9671 148.995 16.7206C150.11 19.2399 151.438 22.1156 152.125 23.1136C151.509 23.0907 150.893 23.0669 150.584 23.0669C149.73 23.0669 148.756 23.1136 148.378 23.1585C147.976 22.0652 146.908 19.4507 146.244 17.9065C146.22 17.8588 146.22 17.835 146.152 17.835L140.268 17.8405ZM145.414 15.8913C145.485 15.8913 145.506 15.8674 145.485 15.7996L143.112 9.90609L140.858 15.8005C140.835 15.872 140.835 15.8922 140.906 15.8922L145.414 15.8913Z" fill="#333333"/>
<path d="M157.651 12.0643C157.651 8.66617 157.58 6.09926 157.296 5.19108C157.844 5.21491 158.268 5.23874 158.765 5.23874C159.216 5.23874 161.35 5.14709 162.323 5.14709C164.244 5.14709 165.762 5.40828 166.758 6.00304C167.449 6.40823 168.02 6.98833 168.416 7.68504C168.811 8.38175 169.017 9.17052 169.012 9.97207C169.012 11.969 167.968 13.6561 166.094 14.8924C167.886 17.5683 169.584 21.8773 170.865 23.2318C169.157 23.0412 168.727 23.1118 167.38 23.2318C166.029 21.9012 164.553 17.3667 163.604 16.0837C163.577 16.0318 163.536 15.9885 163.485 15.959C163.435 15.9295 163.377 15.9149 163.319 15.9169C162.797 15.9169 161.49 15.9169 160.639 15.8931C160.568 15.8931 160.547 15.9407 160.547 16.0361V16.6776C160.547 19.5295 160.665 22.002 160.832 23.1182C160.524 23.0953 159.954 23.0714 159.385 23.0714C158.768 23.0714 157.701 23.1182 157.369 23.1631C157.511 22.1651 157.654 19.2894 157.654 16.2468L157.651 12.0643ZM160.545 13.6808C160.545 13.8715 160.568 13.8944 160.636 13.942C161.087 14.0612 162.083 14.1565 163.221 14.1565C163.861 14.1565 164.266 14.085 164.526 13.8944C165.309 13.3005 166.068 12.2787 166.068 10.7098C166.068 8.19054 164.312 6.93046 162.13 6.93046C161.49 6.93046 160.898 6.95428 160.636 7.0221C160.545 7.04593 160.545 7.09358 160.545 7.18889V13.6808Z" fill="#333333"/>
<path d="M173.715 5.00598C174.355 5.17185 175.399 5.24334 177.533 5.24334H185.43C186.972 5.24334 188.723 5.17185 189.225 5.02981C189.036 5.86101 188.941 6.93047 188.917 7.8579C188.466 7.54906 187.707 7.38227 186.285 7.28696C185.43 7.2164 184.482 7.19532 182.632 7.19532V16.2478C182.632 19.0997 182.751 22.0946 182.869 23.1209C182.561 23.098 182.063 23.0742 181.518 23.0742C180.821 23.0614 180.124 23.092 179.431 23.1659C179.549 22.2155 179.644 19.2921 179.644 16.2496V7.19257C178.624 7.19257 178.008 7.16874 176.49 7.24023C174.782 7.33187 173.976 7.42993 173.241 7.69111C173.406 7.12109 173.643 5.69513 173.715 5.00598Z" fill="#333333"/>
<path d="M194.679 12.0643C194.679 8.66617 194.56 6.16982 194.371 5.19108C194.655 5.21491 195.296 5.23874 195.842 5.23874C196.507 5.24516 197.172 5.21457 197.833 5.14709C197.763 6.00304 197.644 8.18963 197.644 11.7069V12.0881C197.644 12.1587 197.668 12.1797 197.735 12.1797H206.697C206.768 12.1797 206.788 12.1559 206.788 12.0881V11.7069C206.788 8.30876 206.67 6.09834 206.552 5.19475C206.884 5.21858 207.405 5.2424 208.046 5.2424C208.695 5.2557 209.345 5.22509 209.99 5.15076C209.898 6.05436 209.777 8.69274 209.777 12.067V16.2477C209.777 19.0997 209.868 22.0212 209.99 23.1209C209.706 23.098 209.018 23.0742 208.497 23.0742C207.808 23.0742 206.717 23.1448 206.552 23.1658C206.693 22.144 206.788 19.2921 206.788 16.2496V14.4882C206.788 14.4167 206.765 14.3966 206.697 14.3966H197.709C197.661 14.3966 197.638 14.4442 197.638 14.4882V16.2477C197.638 19.0997 197.756 22.0212 197.874 23.1209C197.614 23.098 197.093 23.0742 196.523 23.0742C195.826 23.0672 195.129 23.0978 194.436 23.1658C194.554 22.1202 194.673 19.2921 194.673 16.2496L194.679 12.0643Z" fill="#333333"/>
<path d="M13.735 24.8657C14.4547 16.3796 12.2719 10.5998 6.5657 5.4247C6.5452 5.40607 6.52115 5.39179 6.495 5.38273C6.46884 5.37366 6.44113 5.37001 6.41352 5.37198C6.38592 5.37395 6.359 5.3815 6.33439 5.39419C6.30978 5.40687 6.28799 5.42442 6.27033 5.44578C6.24137 5.48041 6.22618 5.52454 6.2277 5.5697C6.22922 5.61486 6.24734 5.65787 6.27856 5.69046C10.3214 10.2598 14.1767 17.0257 12.0515 24.929C12.0439 24.96 12.0439 24.9924 12.0515 25.0235C12.0592 25.0545 12.0742 25.0832 12.0953 25.1072C12.1164 25.1312 12.143 25.1496 12.1728 25.161C12.2026 25.1725 12.2347 25.1765 12.2664 25.1727L13.5585 25.0435C13.6041 25.0396 13.6469 25.0195 13.6792 24.987C13.7115 24.9544 13.7313 24.9115 13.735 24.8657Z" fill="#BAA48E"/>
<path d="M13.7085 20.6979C17.3096 18.0302 18.7032 12.6811 18.8194 11.432C18.8209 11.4165 18.818 11.4009 18.811 11.3869C18.8041 11.373 18.7933 11.3614 18.78 11.3533C18.7667 11.3453 18.7514 11.3412 18.7359 11.3414C18.7204 11.3417 18.7052 11.3464 18.6923 11.355C17.7065 11.9965 15.4432 13.9989 13.4461 18.8468C13.4401 18.8609 13.4382 18.8765 13.4406 18.8917L13.7085 20.6979Z" fill="#BAA48E"/>
<path d="M11.9793 17.977C10.4 19.6742 6.02164 20.1315 3.58463 20.0169C3.56963 20.0159 3.55518 20.0108 3.54278 20.0023C3.53039 19.9938 3.5205 19.9821 3.51415 19.9684C3.5078 19.9547 3.50522 19.9396 3.50668 19.9246C3.50814 19.9096 3.51359 19.8953 3.52245 19.8831C4.63168 18.3903 10.497 17.6892 11.9281 17.8358C11.9436 17.8374 11.9584 17.8434 11.9708 17.853C11.9831 17.8626 11.9925 17.8756 11.9979 17.8903C12.0032 17.905 12.0043 17.921 12.001 17.9363C11.9977 17.9516 11.9902 17.9657 11.9793 17.977Z" fill="#BAA48E"/>
<path d="M12.2674 16.3989C8.29864 16.7031 2.49279 12.8459 1.00041 11.2981C0.986845 11.2866 0.977311 11.271 0.973202 11.2537C0.969094 11.2364 0.970627 11.2182 0.977577 11.2018C0.984527 11.1854 0.99653 11.1717 1.01183 11.1626C1.02713 11.1535 1.04492 11.1496 1.06259 11.1514C4.22659 11.4539 9.16646 13.3179 11.7342 15.5823C14.1914 17.7479 12.6706 16.7114 12.4512 16.5409C12.3942 16.4882 12.3327 16.4406 12.2674 16.3989Z" fill="#BAA48E"/>
<path d="M9.55141 9.92251C6.47977 7.98153 1.18876 7.32812 0.0621557 7.63787C0.0477852 7.64159 0.0346692 7.64909 0.0241673 7.6596C0.0136654 7.67011 0.00615975 7.68325 0.00242842 7.69765C-0.00130291 7.71204 -0.00112413 7.72718 0.00294623 7.74148C0.0070166 7.75579 0.0148304 7.76874 0.0255777 7.779C0.958318 8.67343 7.23145 11.7123 10.2391 11.1075C10.2594 11.1029 10.2774 11.0911 10.2896 11.0742C10.3019 11.0573 10.3077 11.0366 10.3058 11.0158C10.2546 10.0545 9.68584 9.94084 9.5825 9.92893C9.57186 9.92852 9.56135 9.92635 9.55141 9.92251Z" fill="#BAA48E"/>
<path d="M10.9277 11.3119C10.9277 11.3119 13.2595 2.99255 18.1976 0.0205819C18.211 0.0128854 18.2264 0.00907221 18.2419 0.00956364C18.2574 0.0100551 18.2724 0.014832 18.2854 0.0233666C18.2984 0.0319012 18.3087 0.0438612 18.3153 0.0579251C18.3219 0.071989 18.3245 0.0876094 18.3228 0.10306C18.1976 1.1377 17.3041 6.74256 12.2472 9.61005C12.2381 9.61508 12.2301 9.62188 12.2237 9.63007C12.2172 9.63825 12.2125 9.64765 12.2097 9.6577L11.4983 12.0404" fill="#BAA48E"/>
<path d="M17.9506 9.00801C17.5071 9.40848 15.4761 10.9829 11.9902 9.91618C11.9753 9.9116 11.9619 9.90288 11.9516 9.89102C11.9414 9.87916 11.9347 9.86465 11.9323 9.84914C11.9299 9.83364 11.9319 9.81778 11.9381 9.80337C11.9444 9.78897 11.9545 9.77661 11.9674 9.76772C12.5855 9.34342 15.2073 7.73234 17.9269 8.86963C17.9397 8.87506 17.951 8.88365 17.9597 8.89461C17.9683 8.90556 17.9741 8.91852 17.9765 8.9323C17.9789 8.94608 17.9777 8.96024 17.9732 8.97347C17.9687 8.98669 17.9609 8.99857 17.9506 9.00801Z" fill="#BAA48E"/>
</g>
<defs>
<clipPath id="clip0_42_180">
<rect width="210" height="25.1614" fill="white" transform="translate(0 0.00866699)"/>
</clipPath>
</defs>
</svg>
