<svg width="70" height="31" viewBox="0 0 70 31" fill="none" xmlns="http://www.w3.org/2000/svg">
<g clip-path="url(#clip0_41_119)">
<path d="M10.1372 9.43005C4.91307 9.43005 -0.0494121 14.352 0.000371434 19.9453C0.0457989 24.9589 2.90049 30.9559 10.3126 30.9998C16.4298 31.0365 19.0674 26.1382 19.6476 23.8997C19.6476 23.8997 16.6041 23.8108 16.158 23.8997C15.9793 24.4384 14.2861 28.5457 10.3126 28.5007C5.35645 28.4452 3.39366 22.5409 3.39366 21.1993H20.184C20.3621 13.4573 15.3611 9.43005 10.1372 9.43005ZM3.57288 18.5976C4.85916 10.911 14.3942 8.94907 16.7012 18.5976C16.2532 18.6415 4.15364 18.6415 3.57288 18.5976Z" fill="#333333"/>
<path d="M24.9136 0.243896H21.6107V30.9855H24.9136V0.243896Z" fill="#333333"/>
<path d="M30.2793 0.241699H26.9752V30.9838H30.2793V0.241699Z" fill="#333333"/>
<path d="M41.6246 9.38123C36.184 9.38123 31.7737 14.1419 31.7737 20.0134C31.7737 26.4448 35.826 30.98 41.6246 30.98C47.5124 30.98 51.4757 26.378 51.4757 20.0134C51.4757 14.142 47.0651 9.38123 41.6246 9.38123ZM41.6246 28.4716C37.6951 28.4716 34.9946 24.91 34.9946 20.0134C34.9946 15.6099 37.9632 12.0395 41.6246 12.0395C45.2874 12.0395 48.2545 15.6099 48.2545 20.0134C48.2545 24.865 45.5552 28.4716 41.6246 28.4716Z" fill="#333333"/>
<path d="M65.9136 15.9186C66.1801 15.9483 68.5934 15.9186 68.7936 15.9186C68.9491 15.2944 68.4751 9.50094 60.6087 9.48442C56.2024 9.47397 52.6513 11.3543 52.7192 15.3147C52.8018 20.218 58.6125 20.7523 60.0208 21.0205C61.4263 21.2886 66.5846 22.2295 66.5846 24.5118C66.5846 27.2994 64.3021 28.2626 61.5599 28.3372C59.1494 28.4025 55.8675 27.1956 55.5982 23.7055H52.1816C52.3842 26.9264 54.6617 30.9553 61.0913 30.9806C67.5204 31.0052 69.9999 28.4715 69.9999 24.5118C69.9999 20.0095 64.5029 18.6881 62.9665 18.4111C61.6835 18.1813 56.4027 17.7304 56.4027 15.1803C56.4027 13.4925 57.2582 12.1244 60.6085 12.0263C65.1626 11.8919 65.8473 14.7772 65.9136 15.9186Z" fill="#333333"/>
</g>
<defs>
<clipPath id="clip0_41_119">
<rect width="70" height="30.7583" fill="white" transform="translate(0 0.241699)"/>
</clipPath>
</defs>
</svg>
