<svg width="120" height="23" viewBox="0 0 120 23" fill="none" xmlns="http://www.w3.org/2000/svg">
<g clip-path="url(#clip0_42_150)">
<path d="M52.3422 0.814994V10.8393H42.0594V0.814994H38.7585V22.4072H42.0594V12.1224H52.3422V22.4072H55.643V0.814994H52.3422ZM68.9666 22.8684C74.9082 22.8684 79.3694 18.4376 79.3694 11.561C79.3694 4.66431 74.8682 0.273682 68.9666 0.273682C63.065 0.273682 58.4838 4.66431 58.4838 11.561C58.4838 18.4376 63.045 22.8684 68.9666 22.8684ZM68.9666 21.7256C64.5254 21.7256 62.0047 17.4152 62.0047 11.561C62.0047 5.72688 64.5254 1.41645 68.9666 1.41645C73.4078 1.41645 75.8484 5.70683 75.8484 11.561C75.8484 17.4152 73.3878 21.7256 68.9666 21.7256ZM99.1947 0.814994L92.833 16.8939L86.3712 0.814994H82.2701V22.4072H83.7505V2.49907L91.3326 21.4249H92.5329L100.215 2.27853V22.3872H103.516V0.814994H99.1947ZM110.638 21.1241V12.1023H119.56V10.8393H110.638V2.07805H119.88V0.814994H107.337V22.4072H120.04V21.1442H110.638V21.1241Z" fill="#333333"/>
<path d="M24.2546 1.21606C25.495 0.594555 26.1151 0.674748 26.1351 1.29625C26.1551 2.11824 26.0351 3.18081 25.9351 3.96271C25.4549 8.21299 24.6947 11.6814 24.6347 16.0319C26.6953 10.7391 28.4157 7.03013 30.6163 2.49916C31.3165 1.03562 31.7766 1.3163 32.3368 1.05567C34.5974 0.0532448 34.6774 0.674748 34.3773 1.89771C33.297 6.42867 30.5163 20.7233 30.0962 22.9086C29.9762 23.5501 29.276 23.2694 29.1159 23.0288C28.2957 21.9061 27.3955 21.8861 27.5155 21.1643C28.0156 17.4955 29.8161 8.29319 30.2762 6.12795C27.8756 11.0599 25.4149 17.2148 24.1146 20.7233C23.8345 21.445 23.3344 21.4049 23.0343 20.8436C22.6142 20.0817 21.774 19.7008 21.6139 18.7986C21.1938 15.9317 22.1341 10.4785 22.2541 7.03013C20.9537 10.8193 18.7532 18.117 17.7929 21.425C17.4128 22.8083 16.0724 22.5878 16.4125 21.2445C17.8729 15.671 21.0138 5.86731 22.3741 2.33877C22.7142 1.51679 23.5544 1.55688 24.2546 1.21606Z" fill="#333333"/>
<path d="M16.3126 0.514327C15.8924 0.414085 14.6521 1.07568 13.8919 1.19598C13.6518 1.23607 13.4318 1.4967 13.3518 1.69719C12.1314 4.46388 11.0512 7.11029 10.1109 9.53616C8.91059 9.73664 7.51021 10.0173 5.9498 10.3581C7.0701 7.47116 8.2104 4.62427 9.31069 1.87762C9.85084 0.554422 8.41045 0.414082 7.8503 1.77738C7.13011 3.5617 5.76975 6.88975 4.26935 10.7792C3.16906 11.0398 1.98874 11.3606 0.768415 11.7014C-0.111819 11.962 -0.151831 12.2026 0.22827 12.7239C0.448329 13.0246 0.868442 12.9845 1.0885 13.205C1.60864 13.7664 1.90872 14.4079 2.84897 14.5082C2.00875 16.7135 1.16852 19.0191 0.44833 21.2044C-0.0317978 22.5877 1.30856 22.8885 1.8287 21.4049C2.66892 19.0592 3.54916 16.6734 4.4494 14.2877C5.16959 14.1072 7.01008 13.7263 8.67052 13.3654C7.35017 16.9942 6.46994 19.7609 6.14985 21.1242C6.08983 21.3848 6.18986 21.5252 6.22987 21.6455C6.68999 22.287 7.11011 22.3271 7.69026 23.129C7.8503 23.3496 8.37044 23.4699 8.55049 22.9286C9.77082 19.1995 11.0512 15.7111 12.2315 12.5635C12.7116 12.4632 13.6118 12.2427 14.132 11.4207C15.0922 9.99727 15.3723 10.278 15.5924 9.85694C15.8924 9.29558 15.6924 8.79436 14.6721 8.91465C14.6721 8.91465 14.292 8.95475 13.5718 9.03494C14.7121 6.08781 15.6924 3.6018 16.3926 1.71724C16.6727 1.05564 16.6927 0.61457 16.3126 0.514327Z" fill="#333333"/>
<path d="M13.6318 18.2573C13.2717 18.4778 12.9716 18.2372 13.4718 17.5556C13.5518 17.4353 13.6518 17.315 13.7319 17.2148C13.8119 17.4754 13.9119 17.7561 13.9919 18.0167C13.8519 18.0769 13.7519 18.157 13.6318 18.2573ZM14.292 14.9894C14.212 15.0896 14.112 15.1899 14.0319 15.2701C14.0119 15.2099 13.9919 15.1097 13.9719 15.0696C13.6918 14.007 14.9122 14.2676 14.292 14.9894ZM14.9322 17.0945C14.8722 17.1747 14.7521 17.2549 14.6721 17.3551C14.5721 17.0343 14.452 16.7136 14.372 16.4128C14.6521 16.052 14.9322 15.7111 15.1722 15.3302C16.1525 13.7865 14.232 12.9043 13.3718 13.9068C12.9516 14.428 13.0517 14.9693 13.1717 15.3903C13.1917 15.5507 13.2517 15.7312 13.3517 15.9718C13.0917 16.2123 12.8116 16.5331 12.4315 16.9541C11.4913 18.0769 11.7513 19.4802 12.7516 19.8211C13.3718 20.0216 13.9519 19.7409 14.452 19.2798C14.4921 19.3399 14.5121 19.4001 14.5321 19.4803C14.7921 20.1419 15.6324 19.9614 15.3123 19.1394C15.2523 19.0191 15.1922 18.8186 15.1122 18.5981C15.2723 18.3776 15.4123 18.1971 15.5323 17.9967C16.1325 17.0945 15.5523 16.5532 14.9322 17.0945Z" fill="#333333"/>
</g>
<defs>
<clipPath id="clip0_42_150">
<rect width="120" height="22.6575" fill="white" transform="translate(0 0.273682)"/>
</clipPath>
</defs>
</svg>
