<svg width="110" height="24" viewBox="0 0 110 24" fill="none" xmlns="http://www.w3.org/2000/svg">
<g clip-path="url(#clip0_42_155)">
<path d="M36.528 23.0684H33.5252V20.1325C32.0238 22.261 29.6069 23.5271 27.0069 23.5455C21.807 23.5455 17.5957 19.2884 17.5957 13.6369C17.5957 7.94857 21.8436 3.69153 27.0802 3.69153C32.4266 3.69153 36.528 8.05866 36.528 13.6369V23.0684ZM27.0802 6.57237C23.5647 6.57237 20.7084 9.69175 20.7084 13.6552C20.7084 17.6187 23.5647 20.6646 27.0802 20.6646C30.559 20.6646 33.452 17.5453 33.452 13.6552C33.452 9.7101 30.5224 6.57237 27.0802 6.57237Z" fill="#333333"/>
<path d="M58.7745 23.0684H55.7717V20.1325C54.2703 22.261 51.8534 23.5271 49.2534 23.5455C44.0534 23.5455 39.8422 19.2884 39.8422 13.6369C39.8422 7.94857 44.09 3.69153 49.3266 3.69153C54.6731 3.69153 58.7745 8.05866 58.7745 13.6369V23.0684ZM49.3266 6.57237C45.8112 6.57237 42.9548 9.69175 42.9548 13.6552C42.9548 17.6187 45.8112 20.6646 49.3266 20.6646C52.8055 20.6646 55.6984 17.5453 55.6984 13.6552C55.6984 9.7101 52.7689 6.57237 49.3266 6.57237Z" fill="#333333"/>
<path d="M70.1998 23.0683C65.8054 23.5821 62.766 20.9765 62.766 16.169V0.131714H65.842V4.16856H70.1265V7.14115H65.842V16.169C65.842 19.5086 67.8561 20.3527 70.1998 20.2059V23.0683Z" fill="#333333"/>
<path d="M72.7814 4.18689H76.0771L81.2771 18.9397H81.3137L86.5137 4.18689H89.8095L82.9433 23.0683H79.6109L72.7814 4.18689Z" fill="#333333"/>
<path d="M109.859 23.0684H106.856V20.1325C105.355 22.261 102.938 23.5271 100.338 23.5455C95.1376 23.5455 90.9264 19.2884 90.9264 13.6369C90.9264 7.94857 95.1743 3.69153 100.411 3.69153C105.757 3.69153 109.859 8.05866 109.859 13.6369V23.0684ZM100.411 6.57237C96.8954 6.57237 94.0391 9.69175 94.0391 13.6552C94.0391 17.6187 96.8954 20.6646 100.411 20.6646C103.89 20.6646 106.783 17.5453 106.783 13.6552C106.783 9.7101 103.853 6.57237 100.411 6.57237Z" fill="#333333"/>
<path d="M0 20.4627C2.17887 22.4261 5.01688 23.4903 7.92814 23.4903C12.0662 23.4903 14.7394 21.2517 14.7394 17.802V17.747C14.7394 14.8111 13.0183 13.2331 8.62391 12.1688C4.96195 11.3064 3.95492 10.6275 3.95492 9.04942V8.99438C3.95492 7.59983 5.27322 6.62732 7.17744 6.62732C9.08166 6.68236 10.9126 7.37963 12.3957 8.59069L14.1168 6.15023C12.176 4.57219 9.7225 3.72812 7.23237 3.78317C3.40562 3.78317 0.732392 6.05848 0.732392 9.30631V9.36136C0.732392 12.8477 2.96619 14.0588 7.08589 15.0496C10.4732 15.8387 11.4986 16.5359 11.4986 18.0773V18.1323C11.4986 19.637 10.0887 20.6462 8.00138 20.6462C5.8042 20.6462 3.9183 19.8755 1.92253 18.169L0 20.4627Z" fill="#333333"/>
</g>
<defs>
<clipPath id="clip0_42_155">
<rect width="110" height="23.0729" fill="white" transform="translate(0 0.131714)"/>
</clipPath>
</defs>
</svg>
