<svg width="156" height="38" viewBox="0 0 156 38" fill="none" xmlns="http://www.w3.org/2000/svg">
<g clip-path="url(#clip0_42_164)">
<path d="M90.3 20.7197C90.3 17.0117 88.7333 13.7714 83.4 13.7714C80.6666 13.7714 78.5 14.5397 77.3 15.2412L78.1666 18.2143C79.2666 17.5462 81 16.9783 82.6333 16.9783C85.3333 16.9783 85.7666 18.5149 85.7666 19.4837V19.7175C79.8666 19.7175 76.1333 21.7552 76.1333 25.8975C76.1333 28.4363 78.0333 30.8081 81.3333 30.8081C83.3666 30.8081 85.0666 30.0063 86.0666 28.7035H86.1666C86.1666 28.7035 86.8333 31.5096 90.5666 30.4406C90.3666 29.2714 90.3 28.002 90.3 26.4988V20.7197ZM85.9 24.5947C85.9 24.8953 85.8666 25.196 85.8 25.4632C85.4666 26.599 84.3 27.5677 82.8333 27.5677C81.6 27.5677 80.6333 26.8662 80.6333 25.3964C80.6333 23.1582 83.1 22.557 85.9 22.557" fill="#333333"/>
<path d="M0 8.72705C0 8.72705 3.86667 24.5277 4.46667 27.0665C5.2 30.073 6.46667 31.1754 10.2 30.4405L12.6 20.6527C13.2 18.2141 13.6333 16.4771 14 14.0051H14.0667C14.3333 16.5105 14.7333 18.2141 15.2333 20.6527C15.2333 20.6527 16.2 25.0956 16.7333 27.434C17.2333 29.7724 18.6333 31.2422 22.3 30.4405L28.0333 8.72705H23.4L21.4333 18.1139C20.9 20.8198 20.4333 22.9911 20.0667 25.4631H20C19.6667 22.9911 19.2333 20.9534 18.7 18.281L16.6667 8.72705H11.8333L9.66667 18.0471C9.03333 20.8866 8.46667 23.1581 8.1 25.5967H8.03333C7.66667 23.3252 7.13333 20.4523 6.6 17.7131C6.6 17.7131 5.3 11.032 4.86667 8.72705" fill="#333333"/>
<path d="M40.9333 20.7197C40.9333 17.0117 39.3667 13.7714 34 13.7714C31.2667 13.7714 29.1 14.5397 27.9 15.2412L28.7667 18.2143C29.8333 17.5462 31.5667 16.9783 33.2333 16.9783C35.9333 16.9783 36.3667 18.5149 36.3667 19.4837V19.7175C30.4667 19.7175 26.7333 21.7552 26.7333 25.8975C26.7333 28.4363 28.6333 30.8081 31.9333 30.8081C33.9667 30.8081 35.6667 30.0063 36.6667 28.7035H36.7667C36.7667 28.7035 37.4333 31.5096 41.1667 30.4406C40.9667 29.2714 40.9 28.002 40.9 26.4988V20.7197H40.9333ZM36.5333 24.5947C36.5333 24.8953 36.5 25.196 36.4333 25.4632C36.1 26.599 34.9333 27.5677 33.4667 27.5677C32.2333 27.5677 31.2667 26.8662 31.2667 25.3964C31.2667 23.1582 33.7333 22.557 36.5333 22.557" fill="#333333"/>
<path d="M43.3334 8.72705V30.4405H47.7334V25.8306V8.72705H43.3334Z" fill="#333333"/>
<path d="M103.8 8.72705V24.7282C103.8 26.9329 104.2 28.4696 105.1 29.4383C105.867 30.2735 107.167 30.8079 108.7 30.8079C110 30.8079 111.3 30.5407 111.9 30.3403L111.833 26.8995C111.367 26.9997 110.867 27.1 110.167 27.1C108.667 27.1 108.167 26.1312 108.167 24.1603V18.0137H112V13.8715H108.167V8.72705" fill="#333333"/>
<path d="M92.4333 14.1388V30.4406H97V22.0893C97 21.655 97.0333 21.2541 97.1 20.8867C97.4333 19.1162 98.7667 18.0138 100.7 18.0138C101.233 18.0138 101.6 18.0806 102 18.1475V13.8716C101.667 13.8048 101.433 13.7714 101 13.7714C99.3 13.7714 97.3667 14.8403 96.5667 17.2121H96.4667V14.1388" fill="#333333"/>
<path d="M50.3 14.1388V30.4406H54.7334V20.8532C54.7334 20.419 54.7667 19.9513 54.9334 19.517C55.3 18.5483 56.2 17.4125 57.6334 17.4125C59.4334 17.4125 60.2667 18.9157 60.2667 21.0871V30.3737H64.7001V20.6862C64.7001 20.2519 64.7667 19.7509 64.8667 19.3834C65.2334 18.281 66.2001 17.4125 67.5334 17.4125C69.3334 17.4125 70.2001 18.8823 70.2001 21.4545V30.4071H74.6334V20.7864C74.6334 15.7422 72.0667 13.7379 69.1667 13.7379C67.9001 13.7379 66.8667 14.0386 65.9667 14.6064C65.2 15.0741 64.5 15.7422 63.9 16.6442H63.8C63.1 14.8737 61.4667 13.7379 59.3 13.7379C56.5334 13.7379 55.3 15.1409 54.5667 16.3101H54.5001V14.1054" fill="#333333"/>
<path d="M135.833 13.4039C136.7 13.4039 137.433 12.9362 137.533 12.3683L138.4 2.58054C138.4 1.61179 137.267 0.810059 135.833 0.810059C134.4 0.810059 133.267 1.61179 133.267 2.58054L134.133 12.3683C134.233 12.9362 134.967 13.4039 135.833 13.4039Z" fill="#BAA48E"/>
<path d="M130.533 16.4437C130.967 15.6754 130.933 14.8403 130.467 14.4394L122.4 8.79394C121.567 8.29286 120.3 8.89416 119.6 10.1302C118.9 11.3661 119.033 12.7358 119.833 13.2368L128.733 17.3791C129.333 17.6129 130.1 17.2121 130.533 16.4437Z" fill="#BAA48E"/>
<path d="M141.1 16.4437C141.567 17.2121 142.3 17.6129 142.867 17.4125L151.767 13.2702C152.6 12.7692 152.733 11.3995 152.033 10.1636C151.333 8.92756 150.067 8.35967 149.233 8.82734L141.167 14.4728C140.733 14.8403 140.7 15.7088 141.1 16.4437Z" fill="#BAA48E"/>
<path d="M135.833 25.6301C136.7 25.6301 137.433 26.0978 137.533 26.6657L138.4 36.4534C138.4 37.4222 137.267 38.2239 135.833 38.2239C134.4 38.2239 133.267 37.4222 133.267 36.4534L134.133 26.6657C134.233 26.0644 134.967 25.6301 135.833 25.6301Z" fill="#BAA48E"/>
<path d="M141.1 22.5569C141.567 21.7886 142.3 21.3877 142.867 21.6216L151.767 25.7638C152.6 26.2315 152.733 27.6345 152.033 28.8705C151.333 30.1065 150.067 30.6744 149.233 30.2067L141.167 24.5612C140.733 24.1604 140.7 23.3252 141.1 22.5569Z" fill="#BAA48E"/>
<path d="M130.533 22.5568C130.967 23.3252 130.933 24.1603 130.467 24.5612L122.4 30.2066C121.567 30.7077 120.3 30.1064 119.6 28.8704C118.9 27.6344 119.033 26.2648 119.833 25.7637L128.733 21.6215C129.333 21.4211 130.1 21.8219 130.533 22.5568Z" fill="#BAA48E"/>
<path d="M154.4 29.3382H154.5C154.667 29.3382 154.7 29.3716 154.733 29.5052C154.767 29.6388 154.767 29.739 154.8 29.7724H155.1C155.067 29.739 155.033 29.6722 155.033 29.5052C155 29.3716 154.933 29.2714 154.833 29.238V29.2045C154.967 29.1711 155.067 29.0709 155.067 28.9707C155.067 28.8705 155.033 28.7703 154.967 28.7369C154.867 28.7035 154.767 28.6701 154.567 28.6701C154.4 28.6701 154.267 28.6701 154.167 28.7035V29.7724H154.433V29.3382H154.4ZM154.4 28.8371L154.533 28.8037C154.7 28.8037 154.767 28.8705 154.767 28.9707C154.767 29.0709 154.667 29.1377 154.5 29.1377H154.4V28.8371ZM154.567 28.1022C153.933 28.1022 153.433 28.6032 153.433 29.2045C153.433 29.8058 153.933 30.3069 154.567 30.3069C155.2 30.3069 155.667 29.8058 155.667 29.2045C155.667 28.6032 155.2 28.1022 154.567 28.1022ZM154.567 28.336C155.033 28.336 155.4 28.7369 155.4 29.2045C155.4 29.6722 155.033 30.1065 154.567 30.0731C154.1 30.0731 153.733 29.6722 153.733 29.2045C153.733 28.7369 154.067 28.336 154.567 28.336Z" fill="#333333"/>
</g>
<defs>
<clipPath id="clip0_42_164">
<rect width="156" height="37.0799" fill="white" transform="translate(0 0.810059)"/>
</clipPath>
</defs>
</svg>
